<?xml version="1.0" standalone="no"?>
<!DOCTYPE svg PUBLIC "-//W3C//DTD SVG 20010904//EN"
 "http://www.w3.org/TR/2001/REC-SVG-20010904/DTD/svg10.dtd">
<svg version="1.0" xmlns="http://www.w3.org/2000/svg"
 width="320.000000pt" height="320.000000pt" viewBox="0 0 320.000000 320.000000"
 preserveAspectRatio="xMidYMid meet">
<metadata>
Created by potrace 1.11, written by Peter Selinger 2001-2013
</metadata>
<g transform="translate(0.000000,320.000000) scale(0.100000,-0.100000)"
fill="#000000" stroke="none">
<path d="M0 1600 l0 -1600 1600 0 1600 0 0 1600 0 1600 -1600 0 -1600 0 0
-1600z m2599 334 c48 -16 71 -13 71 11 0 8 4 15 10 15 5 0 9 -45 9 -105 0 -58
-4 -105 -8 -105 -5 0 -16 20 -26 45 -45 120 -139 164 -242 114 -34 -16 -45
-28 -54 -59 -24 -79 12 -125 169 -217 54 -31 114 -70 135 -86 123 -96 109
-293 -28 -383 -34 -22 -120 -41 -171 -38 -22 2 -75 14 -118 28 l-77 24 -18
-29 c-15 -25 -20 -27 -25 -14 -3 9 -3 21 0 27 4 5 6 57 6 114 0 114 13 134 34
51 27 -107 95 -168 191 -174 92 -6 152 43 157 128 4 56 -23 86 -137 150 -170
95 -225 159 -232 266 -5 74 10 123 53 173 70 83 178 106 301 64z m-1752 -9
c192 -37 303 -161 317 -355 6 -98 -35 -232 -91 -295 -54 -61 -142 -109 -228
-124 -72 -14 -468 -14 -460 -1 3 5 22 10 40 10 23 0 37 6 43 18 7 13 10 664 3
719 0 7 -19 16 -41 19 -22 4 -40 11 -40 16 0 14 376 8 457 -7z m878 -258 l0
-117 111 0 c111 0 112 0 116 -25 l5 -25 -91 -1 c-50 -1 -101 0 -113 1 -25 2
-25 1 -25 -168 l1 -73 -27 3 -27 3 0 115 0 115 -112 3 c-113 3 -113 3 -113 27
l0 25 113 0 113 0 -1 120 0 121 25 -3 25 -3 0 -118z"/>
<path d="M697 1912 c-15 -2 -31 -11 -36 -20 -5 -10 -9 -172 -10 -360 0 -381
-1 -372 67 -372 162 0 243 126 244 380 0 164 -28 268 -89 325 -40 36 -111 55
-176 47z"/>
</g>
</svg>
